<svg width="40" height="40" viewBox="0 0 40 40" fill="none" xmlns="http://www.w3.org/2000/svg">
<circle cx="20" cy="20" r="20" fill="#A258AE"/>
<path d="M27.3667 14.8417C26.941 14.4158 26.4357 14.078 25.8795 13.8476C25.3232 13.6171 24.7271 13.4985 24.125 13.4985C23.5229 13.4985 22.9268 13.6171 22.3705 13.8476C21.8143 14.078 21.309 14.4158 20.8833 14.8417L20 15.725L19.1167 14.8417C18.2569 13.9819 17.0909 13.4989 15.875 13.4989C14.6591 13.4989 13.4931 13.9819 12.6333 14.8417C11.7736 15.7014 11.2906 16.8675 11.2906 18.0833C11.2906 19.2992 11.7736 20.4653 12.6333 21.325L13.5167 22.2083L20 28.6917L26.4833 22.2083L27.3667 21.325C27.7925 20.8994 28.1303 20.394 28.3608 19.8378C28.5912 19.2816 28.7099 18.6854 28.7099 18.0833C28.7099 17.4813 28.5912 16.8851 28.3608 16.3289C28.1303 15.7727 27.7925 15.2673 27.3667 14.8417Z" stroke="white" stroke-width="2" stroke-linecap="round" stroke-linejoin="round"/>
</svg>
